<svg width="70" height="78" viewBox="0 0 70 78" fill="none" xmlns="http://www.w3.org/2000/svg">
<g filter="url(#filter0_d)">
<path d="M67 20.271V45.694C67 55.7844 58.5565 63.9651 48.1421 63.9651H46.2347L36.4941 73.3963C36.1127 73.7659 35.5849 74 35 74C34.4596 74 33.97 73.809 33.5949 73.4887L33.4296 73.3285L33.4232 73.3224L23.7653 63.9651H21.8516C11.4435 63.9651 3 55.7844 3 45.694V20.271C3 10.1807 11.4435 2 21.8579 2H48.1421C58.5565 2 67 10.1807 67 20.271Z" fill="#ff3d00"/>
</g>
<path d="M52.2206 25.8484C51.3871 25.4236 50.5303 25.0461 49.6544 24.7178L49.409 24.5388C49.409 24.5388 43.5903 20.3811 41.0241 19.3036C38.4579 18.226 33.9952 15.882 29.4629 16.0046C27.2463 16.0513 25.0439 16.3698 22.9048 16.9529C21.9931 17.1684 21.3797 17.4303 22.3843 17.9011C22.7159 18.0569 24.1482 18.8958 25.8855 19.8904C28.4219 21.336 31.6147 23.0832 33.0006 23.3982C35.0631 23.8915 37.1796 24.1232 39.3 24.0878C42.4896 24.0215 44.0379 25.3776 44.3529 25.8749C43.7826 25.0659 41.6076 24.4161 38.7165 24.5951C35.9282 24.7642 33.6869 24.5951 32.3806 24.1939C29.7776 23.3814 27.2359 22.3843 24.7748 21.21C24.1336 21.4019 23.5037 21.6299 22.8883 21.893C22.0826 22.2245 21.3333 22.8412 22.4573 23.1595C23.2662 23.3883 30.8057 26.0838 33.0039 26.2164C34.9486 26.35 36.9024 26.2386 38.8193 25.8848C41.6706 25.3511 43.156 26.5181 43.5074 26.9723C42.5365 28.3271 42.0676 29.9777 42.1812 31.6406C31.7838 29.8071 28.4451 28.8655 26.0877 28.461C21.9732 27.7548 16.7446 31.2361 16.1014 35.5496C15.7367 37.9997 16.3634 40.2907 17.8553 42.406C19.5131 44.7501 21.6748 46.7759 21.9931 47.2036C22.1953 47.5683 22.129 48.5298 22.1456 49.1929C22.1456 49.9256 23.0773 50.5821 23.6177 50.6285C23.9492 50.6616 30.1094 52.5846 30.1094 52.5846L39.2603 55.3962C39.2603 55.3962 39.3995 54.7662 39.426 54.501C39.4957 53.8379 38.9817 52.1602 36.8366 51.5369L32.3905 50.2107C32.0291 50.1046 32.2811 50.098 32.8447 49.6537C33.7544 48.8802 34.4996 47.932 35.0363 46.8654C36.9029 42.8868 34.5522 39.3757 34.5522 39.3757C35.5771 40.5867 36.2725 42.0415 36.5714 43.5996C37.2577 46.9582 34.9799 49.6206 34.9799 49.6206L36.3393 50.0184C36.3393 50.0184 45.1287 41.176 45.9874 40.2211C46.7135 39.4188 47.9767 38.8949 48.6133 38.6993C50.6963 38.0793 52.7131 37.2553 54.6343 36.2392C55.3769 35.7684 56.292 34.104 56.5208 33.6929C56.8248 33.2183 57.0259 32.6851 57.1109 32.128C57.1308 31.9124 55.8776 30.2447 55.8776 30.2447C55.8776 30.2447 53.875 26.8497 52.2206 25.8484Z" fill="white"/>
<path d="M27.007 53.2605C26.8526 53.3474 26.7251 53.4752 26.6385 53.6297C26.5519 53.7843 26.5095 53.9597 26.516 54.1368C26.5225 54.3139 26.5777 54.4857 26.6754 54.6335C26.7731 54.7813 26.9097 54.8993 27.07 54.9747C27.8061 55.3593 30.2695 54.0099 30.2695 54.0099L27.7961 53.234C27.5399 53.1382 27.2562 53.1477 27.007 53.2605V53.2605Z" fill="white"/>
<defs>
<filter id="filter0_d" x="0" y="0" width="70" height="78" filterUnits="userSpaceOnUse" color-interpolation-filters="sRGB">
<feFlood flood-opacity="0" result="BackgroundImageFix"/>
<feColorMatrix in="SourceAlpha" type="matrix" values="0 0 0 0 0 0 0 0 0 0 0 0 0 0 0 0 0 0 127 0" result="hardAlpha"/>
<feOffset dy="1"/>
<feGaussianBlur stdDeviation="1.5"/>
<feColorMatrix type="matrix" values="0 0 0 0 0 0 0 0 0 0 0 0 0 0 0 0 0 0 0.25 0"/>
<feBlend mode="normal" in2="BackgroundImageFix" result="effect1_dropShadow"/>
<feBlend mode="normal" in="SourceGraphic" in2="effect1_dropShadow" result="shape"/>
</filter>
</defs>
</svg>
